<svg width="16" height="16" viewBox="0 0 16 16" fill="none" xmlns="http://www.w3.org/2000/svg">
<path d="M14.6771 8.25122C14.9771 7.8523 15.1431 7.36353 15.1431 6.85499C15.1431 6.04816 14.6949 5.28446 13.9735 4.85858C13.7878 4.74896 13.5763 4.69127 13.361 4.69147H9.07885L9.18599 2.48302C9.21099 1.94933 9.02349 1.44259 8.65921 1.05625C8.48043 0.865822 8.26475 0.714312 8.02549 0.611082C7.78622 0.507851 7.52846 0.455093 7.26814 0.456068C6.33956 0.456068 5.51814 1.085 5.27171 1.98527L3.73778 7.57377H1.42885C1.11278 7.57377 0.857422 7.83073 0.857422 8.14879V14.6897C0.857422 15.0077 1.11278 15.2647 1.42885 15.2647H12.1663C12.3306 15.2647 12.4913 15.2323 12.6396 15.1677C13.4896 14.8029 14.0378 13.9673 14.0378 13.0401C14.0378 12.8137 14.0056 12.5908 13.9413 12.3752C14.2414 11.9763 14.4074 11.4875 14.4074 10.979C14.4074 10.7526 14.3753 10.5297 14.311 10.3141C14.611 9.91519 14.7771 9.42642 14.7771 8.91788C14.7735 8.69147 14.7414 8.46685 14.6771 8.25122ZM2.14314 13.9709V8.86757H3.58956V13.9709H2.14314ZM13.5074 7.62768L13.1164 7.9691L13.3646 8.42552C13.4463 8.57587 13.4887 8.74469 13.4878 8.91609C13.4878 9.21258 13.3592 9.4947 13.1378 9.68877L12.7467 10.0302L12.9949 10.4866C13.0767 10.637 13.1191 10.8058 13.1181 10.9772C13.1181 11.2737 12.9896 11.5558 12.7681 11.7499L12.3771 12.0913L12.6253 12.5477C12.7071 12.6981 12.7495 12.8669 12.7485 13.0383C12.7485 13.4408 12.5128 13.8038 12.1485 13.9691H4.73242V8.81007L6.50921 2.33208C6.55502 2.16604 6.65337 2.01956 6.78936 1.91482C6.92534 1.81009 7.09154 1.75281 7.26278 1.75167C7.39849 1.75167 7.53242 1.7912 7.63956 1.87206C7.81635 2.00503 7.91099 2.20629 7.90028 2.42013L7.72885 5.98527H13.3431C13.661 6.18114 13.8574 6.51177 13.8574 6.85499C13.8574 7.15149 13.7289 7.43181 13.5074 7.62768Z" fill="white" fill-opacity="0.45"/>
</svg>
