<svg width="2" height="13" viewBox="0 0 2 13" fill="none" xmlns="http://www.w3.org/2000/svg">
<path d="M0 1.98425C0 2.24947 0.105357 2.50382 0.292893 2.69136C0.480429 2.8789 0.734784 2.98425 1 2.98425C1.26522 2.98425 1.51957 2.8789 1.70711 2.69136C1.89464 2.50382 2 2.24947 2 1.98425C2 1.71904 1.89464 1.46468 1.70711 1.27715C1.51957 1.08961 1.26522 0.984253 1 0.984253C0.734784 0.984253 0.480429 1.08961 0.292893 1.27715C0.105357 1.46468 0 1.71904 0 1.98425ZM0 6.98425C0 7.24947 0.105357 7.50382 0.292893 7.69136C0.480429 7.8789 0.734784 7.98425 1 7.98425C1.26522 7.98425 1.51957 7.8789 1.70711 7.69136C1.89464 7.50382 2 7.24947 2 6.98425C2 6.71904 1.89464 6.46468 1.70711 6.27715C1.51957 6.08961 1.26522 5.98425 1 5.98425C0.734784 5.98425 0.480429 6.08961 0.292893 6.27715C0.105357 6.46468 0 6.71904 0 6.98425V6.98425ZM0 11.9843C0 12.2495 0.105357 12.5038 0.292893 12.6914C0.480429 12.8789 0.734784 12.9843 1 12.9843C1.26522 12.9843 1.51957 12.8789 1.70711 12.6914C1.89464 12.5038 2 12.2495 2 11.9843C2 11.719 1.89464 11.4647 1.70711 11.2771C1.51957 11.0896 1.26522 10.9843 1 10.9843C0.734784 10.9843 0.480429 11.0896 0.292893 11.2771C0.105357 11.4647 0 11.719 0 11.9843V11.9843Z" fill="white" fill-opacity="0.85"/>
</svg>
