<svg width="16" height="14" viewBox="0 0 16 14" fill="none" xmlns="http://www.w3.org/2000/svg">
<path d="M15.4286 0.556641H11.3429C10.4661 0.556641 9.60893 0.810011 8.87143 1.288L8 1.85044L7.12857 1.288C6.39181 0.810102 5.53371 0.55617 4.65714 0.556641H0.571429C0.255357 0.556641 0 0.813604 0 1.13166V11.3383C0 11.6564 0.255357 11.9133 0.571429 11.9133H4.65714C5.53393 11.9133 6.39107 12.1667 7.12857 12.6447L7.92143 13.1586C7.94464 13.173 7.97143 13.182 7.99821 13.182C8.025 13.182 8.05179 13.1748 8.075 13.1586L8.86786 12.6447C9.60714 12.1667 10.4661 11.9133 11.3429 11.9133H15.4286C15.7446 11.9133 16 11.6564 16 11.3383V1.13166C16 0.813604 15.7446 0.556641 15.4286 0.556641ZM4.65714 10.6195H1.28571V1.85044H4.65714C5.28929 1.85044 5.90357 2.03193 6.43393 2.37515L7.30536 2.93759L7.42857 3.01846V11.3203C6.57857 10.8603 5.62857 10.6195 4.65714 10.6195ZM14.7143 10.6195H11.3429C10.3714 10.6195 9.42143 10.8603 8.57143 11.3203V3.01846L8.69464 2.93759L9.56607 2.37515C10.0964 2.03193 10.7107 1.85044 11.3429 1.85044H14.7143V10.6195ZM5.94464 4.15053H2.62679C2.55714 4.15053 2.5 4.21163 2.5 4.2853V5.09393C2.5 5.1676 2.55714 5.2287 2.62679 5.2287H5.94286C6.0125 5.2287 6.06964 5.1676 6.06964 5.09393V4.2853C6.07143 4.21163 6.01429 4.15053 5.94464 4.15053ZM9.92857 4.2853V5.09393C9.92857 5.1676 9.98571 5.2287 10.0554 5.2287H13.3714C13.4411 5.2287 13.4982 5.1676 13.4982 5.09393V4.2853C13.4982 4.21163 13.4411 4.15053 13.3714 4.15053H10.0554C9.98571 4.15053 9.92857 4.21163 9.92857 4.2853ZM5.94464 6.66625H2.62679C2.55714 6.66625 2.5 6.72735 2.5 6.80103V7.60965C2.5 7.68333 2.55714 7.74442 2.62679 7.74442H5.94286C6.0125 7.74442 6.06964 7.68333 6.06964 7.60965V6.80103C6.07143 6.72735 6.01429 6.66625 5.94464 6.66625ZM13.3732 6.66625H10.0554C9.98571 6.66625 9.92857 6.72735 9.92857 6.80103V7.60965C9.92857 7.68333 9.98571 7.74442 10.0554 7.74442H13.3714C13.4411 7.74442 13.4982 7.68333 13.4982 7.60965V6.80103C13.5 6.72735 13.4429 6.66625 13.3732 6.66625Z" fill="white" fill-opacity="0.45"/>
</svg>
