<svg width="14" height="15" viewBox="0 0 14 15" fill="none" xmlns="http://www.w3.org/2000/svg">
<path d="M13.8034 7.04704L0.733083 0.493915C0.679958 0.467352 0.619021 0.461102 0.561208 0.475165C0.497045 0.491027 0.441781 0.531668 0.407517 0.588188C0.373253 0.644708 0.362782 0.712503 0.378395 0.776727L1.72527 6.27985C1.74558 6.36266 1.80652 6.42985 1.88777 6.45641L4.19558 7.2486L1.88933 8.04079C1.80808 8.06891 1.74715 8.13454 1.7284 8.21735L0.378395 13.7283C0.364333 13.7861 0.370583 13.847 0.397145 13.8986C0.458083 14.022 0.608083 14.072 0.733083 14.0111L13.8034 7.49548C13.8518 7.47204 13.8909 7.43141 13.9159 7.38454C13.9768 7.25954 13.9268 7.10954 13.8034 7.04704ZM1.91902 12.1627L2.70496 8.95016L7.31746 7.36735C7.3534 7.35485 7.38308 7.32673 7.39558 7.28923C7.41746 7.2236 7.38308 7.15329 7.31746 7.12985L2.70496 5.5486L1.92215 2.3486L11.7346 7.26891L1.91902 12.1627Z" fill="black"/>
</svg>
