<svg width="14" height="14" viewBox="0 0 14 14" fill="none" xmlns="http://www.w3.org/2000/svg">
<path d="M11.2856 9.71429C10.7766 9.71429 10.307 9.89286 9.93915 10.1911L6.23915 7.51429C6.3011 7.17423 6.3011 6.82577 6.23915 6.48572L9.93915 3.80893C10.307 4.10714 10.7766 4.28571 11.2856 4.28571C12.4677 4.28571 13.4284 3.325 13.4284 2.14286C13.4284 0.960714 12.4677 0 11.2856 0C10.1034 0 9.14272 0.960714 9.14272 2.14286C9.14272 2.35 9.17129 2.54821 9.22665 2.7375L5.71236 5.28214C5.19093 4.59107 4.36236 4.14286 3.42843 4.14286C1.84986 4.14286 0.571289 5.42143 0.571289 7C0.571289 8.57857 1.84986 9.85714 3.42843 9.85714C4.36236 9.85714 5.19093 9.40893 5.71236 8.71786L9.22665 11.2625C9.17129 11.4518 9.14272 11.6518 9.14272 11.8571C9.14272 13.0393 10.1034 14 11.2856 14C12.4677 14 13.4284 13.0393 13.4284 11.8571C13.4284 10.675 12.4677 9.71429 11.2856 9.71429ZM11.2856 1.21429C11.7981 1.21429 12.2141 1.63036 12.2141 2.14286C12.2141 2.65536 11.7981 3.07143 11.2856 3.07143C10.7731 3.07143 10.357 2.65536 10.357 2.14286C10.357 1.63036 10.7731 1.21429 11.2856 1.21429ZM3.42843 8.57143C2.56236 8.57143 1.857 7.86607 1.857 7C1.857 6.13393 2.56236 5.42857 3.42843 5.42857C4.2945 5.42857 4.99986 6.13393 4.99986 7C4.99986 7.86607 4.2945 8.57143 3.42843 8.57143ZM11.2856 12.7857C10.7731 12.7857 10.357 12.3696 10.357 11.8571C10.357 11.3446 10.7731 10.9286 11.2856 10.9286C11.7981 10.9286 12.2141 11.3446 12.2141 11.8571C12.2141 12.3696 11.7981 12.7857 11.2856 12.7857Z" fill="white" fill-opacity="0.85"/>
</svg>
