<svg width="13" height="12" viewBox="0 0 13 12" fill="none" xmlns="http://www.w3.org/2000/svg">
<g clip-path="url(#clip0_913_2684)">
<path fill-rule="evenodd" clip-rule="evenodd" d="M6.5 12C9.81371 12 12.5 9.31371 12.5 6C12.5 2.68629 9.81371 0 6.5 0C3.18629 0 0.5 2.68629 0.5 6C0.5 9.31371 3.18629 12 6.5 12ZM6.49904 10.5377C9.0052 10.5377 11.0369 8.50606 11.0369 5.99989C11.0369 3.49373 9.0052 1.46208 6.49904 1.46208C3.99287 1.46208 1.96122 3.49373 1.96122 5.99989C1.96122 8.50606 3.99287 10.5377 6.49904 10.5377ZM6.49904 11.0419C9.28366 11.0419 11.5411 8.78452 11.5411 5.99989C11.5411 3.21527 9.28366 0.957878 6.49904 0.957878C3.71441 0.957878 1.45702 3.21527 1.45702 5.99989C1.45702 8.78452 3.71441 11.0419 6.49904 11.0419ZM6.65607 3.39194L7.3732 4.84501C7.39547 4.89014 7.43852 4.92141 7.48832 4.92865L9.09187 5.16166C9.21728 5.17988 9.26735 5.33399 9.17661 5.42245L8.07382 6.4974C8.00175 6.56765 7.96887 6.66886 7.98588 6.76806L8.24621 8.28591C8.26764 8.41081 8.13654 8.50606 8.02437 8.44709L6.59011 7.69305C6.54557 7.66963 6.49236 7.66963 6.44781 7.69305L5.01355 8.44709C4.90138 8.50606 4.77029 8.41081 4.79171 8.28591L5.06563 6.68883C5.07414 6.63924 5.05769 6.58863 5.02166 6.5535L3.86132 5.42245C3.77057 5.33399 3.82064 5.17988 3.94605 5.16166L5.54961 4.92865C5.59941 4.92141 5.64246 4.89013 5.66473 4.84501L6.38186 3.39194C6.43794 3.2783 6.59998 3.2783 6.65607 3.39194Z" fill="#FFD60A"/>
</g>
<defs>
<clipPath id="clip0_913_2684">
<rect width="12" height="12" fill="white" transform="translate(0.5)"/>
</clipPath>
</defs>
</svg>
