<svg width="12" height="12" viewBox="0 0 12 12" fill="none" xmlns="http://www.w3.org/2000/svg">
<g clip-path="url(#clip0_913_1486)">
<path d="M11.0078 6.29132C11.2328 5.994 11.3574 5.62972 11.3574 5.2507C11.3574 4.64936 11.0212 4.08016 10.4801 3.76275C10.3408 3.68105 10.1822 3.63805 10.0207 3.6382H6.80914L6.88949 1.99222C6.90825 1.59445 6.76762 1.21677 6.49441 0.928822C6.36032 0.786896 6.19856 0.673974 6.01911 0.597035C5.83967 0.520096 5.64635 0.480775 5.4511 0.481501C4.75467 0.481501 4.1386 0.950251 3.95378 1.62123L2.80333 5.78641H1.07164C0.834584 5.78641 0.643066 5.97793 0.643066 6.21498V11.09C0.643066 11.327 0.834584 11.5186 1.07164 11.5186H9.12476C9.24798 11.5186 9.36851 11.4944 9.47967 11.4462C10.1172 11.1744 10.5283 10.5516 10.5283 9.86052C10.5283 9.69177 10.5042 9.5257 10.456 9.36498C10.681 9.06766 10.8056 8.70338 10.8056 8.32436C10.8056 8.15561 10.7815 7.98954 10.7332 7.82882C10.9582 7.5315 11.0828 7.16722 11.0828 6.7882C11.0801 6.61945 11.056 6.45204 11.0078 6.29132ZM1.60735 10.5543V6.7507H2.69217V10.5543H1.60735ZM10.1306 5.82659L9.83726 6.08106L10.0234 6.42123C10.0848 6.53329 10.1166 6.65912 10.1158 6.78686C10.1158 7.00784 10.0194 7.21811 9.85333 7.36275L9.56003 7.61722L9.74619 7.95739C9.80752 8.06945 9.83932 8.19528 9.8386 8.32302C9.8386 8.544 9.74217 8.75427 9.5761 8.89891L9.2828 9.15338L9.46896 9.49356C9.53029 9.60561 9.56209 9.73144 9.56137 9.85918C9.56137 10.1592 9.38458 10.4297 9.11137 10.5529H3.54932V6.70784L4.88191 1.87972C4.91627 1.75597 4.99003 1.64679 5.09202 1.56873C5.194 1.49067 5.31866 1.44798 5.44708 1.44713C5.54887 1.44713 5.64932 1.47659 5.72967 1.53686C5.86226 1.63597 5.93324 1.78597 5.92521 1.94534L5.79664 4.60248H10.0074C10.2457 4.74847 10.3931 4.99489 10.3931 5.2507C10.3931 5.47168 10.2966 5.68061 10.1306 5.82659Z" fill="white" fill-opacity="0.85"/>
</g>
<defs>
<clipPath id="clip0_913_1486">
<rect width="12" height="12" fill="white" transform="translate(0 0.00100708)"/>
</clipPath>
</defs>
</svg>
