<svg width="12" height="12" viewBox="0 0 12 12" fill="none" xmlns="http://www.w3.org/2000/svg">
<g clip-path="url(#clip0_913_1490)">
<path d="M5.35721 6.00101C5.35721 6.1715 5.42494 6.33502 5.5455 6.45558C5.66606 6.57613 5.82957 6.64386 6.00007 6.64386C6.17057 6.64386 6.33408 6.57613 6.45464 6.45558C6.5752 6.33502 6.64293 6.1715 6.64293 6.00101C6.64293 5.83051 6.5752 5.667 6.45464 5.54644C6.33408 5.42588 6.17057 5.35815 6.00007 5.35815C5.82957 5.35815 5.66606 5.42588 5.5455 5.54644C5.42494 5.667 5.35721 5.83051 5.35721 6.00101ZM8.03578 6.00101C8.03578 6.1715 8.10351 6.33502 8.22407 6.45558C8.34463 6.57613 8.50814 6.64386 8.67864 6.64386C8.84914 6.64386 9.01265 6.57613 9.13321 6.45558C9.25377 6.33502 9.3215 6.1715 9.3215 6.00101C9.3215 5.83051 9.25377 5.667 9.13321 5.54644C9.01265 5.42588 8.84914 5.35815 8.67864 5.35815C8.50814 5.35815 8.34463 5.42588 8.22407 5.54644C8.10351 5.667 8.03578 5.83051 8.03578 6.00101ZM2.67864 6.00101C2.67864 6.1715 2.74637 6.33502 2.86693 6.45558C2.98749 6.57613 3.151 6.64386 3.3215 6.64386C3.49199 6.64386 3.65551 6.57613 3.77607 6.45558C3.89663 6.33502 3.96435 6.1715 3.96435 6.00101C3.96435 5.83051 3.89663 5.667 3.77607 5.54644C3.65551 5.42588 3.49199 5.35815 3.3215 5.35815C3.151 5.35815 2.98749 5.42588 2.86693 5.54644C2.74637 5.667 2.67864 5.83051 2.67864 6.00101ZM11.534 3.67601C11.2313 2.95681 10.7974 2.31128 10.2443 1.75681C9.69501 1.20556 9.04297 0.767375 8.32507 0.467079C7.58846 0.157704 6.80632 0.00100708 6.00007 0.00100708H5.97328C5.16168 0.00502494 4.37551 0.165739 3.63623 0.481811C2.92448 0.785187 2.27855 1.22415 1.73444 1.77422C1.18668 2.32735 0.756765 2.9702 0.459443 3.68672C0.151408 4.42869 -0.00394951 5.21752 6.83519e-05 6.02913C0.00461288 6.95923 0.224656 7.87561 0.642926 8.70636V10.7421C0.642926 10.9055 0.707833 11.0622 0.823369 11.1777C0.938905 11.2932 1.0956 11.3582 1.259 11.3582H3.29605C4.1268 11.7764 5.04319 11.9965 5.97328 12.001H6.00141C6.80364 12.001 7.58177 11.8457 8.31435 11.5416C9.02863 11.2449 9.67824 10.8118 10.2269 10.2666C10.78 9.71886 11.2152 9.07869 11.5193 8.36485C11.8353 7.62556 11.9961 6.8394 12.0001 6.02779C12.0041 5.21217 11.8461 4.42065 11.534 3.67601ZM9.51034 9.54208C8.5715 10.4715 7.32596 10.9832 6.00007 10.9832H5.9773C5.16971 10.9791 4.36748 10.7782 3.659 10.4006L3.5465 10.3403H1.66078V8.45458L1.60051 8.34208C1.22284 7.6336 1.02194 6.83136 1.01793 6.02378C1.01257 4.68851 1.52284 3.43494 2.459 2.49074C3.39382 1.54654 4.64337 1.02422 5.97864 1.01886H6.00141C6.67105 1.01886 7.3206 1.14877 7.93266 1.40592C8.52998 1.65636 9.06569 2.01663 9.52641 2.47735C9.98578 2.93672 10.3474 3.47377 10.5978 4.0711C10.8577 4.68985 10.9876 5.3461 10.9849 6.02378C10.9769 7.3577 10.4532 8.60726 9.51034 9.54208Z" fill="white" fill-opacity="0.85"/>
</g>
<defs>
<clipPath id="clip0_913_1490">
<rect width="12" height="12" fill="white" transform="translate(0 0.00100708)"/>
</clipPath>
</defs>
</svg>
