<svg width="100" height="100" viewBox="0 0 100 100" fill="none" xmlns="http://www.w3.org/2000/svg">
<path d="M4.7619 0H0V4.54545H4.7619V0Z" fill="white"/>
<path d="M9.5238 0H4.7619V4.54545H9.5238V0Z" fill="white"/>
<path d="M14.2857 0H9.52377V4.54545H14.2857V0Z" fill="white"/>
<path d="M19.0475 0H14.2856V4.54545H19.0475V0Z" fill="white"/>
<path d="M23.8094 0H19.0475V4.54545H23.8094V0Z" fill="white"/>
<path d="M28.5713 0H23.8094V4.54545H28.5713V0Z" fill="white"/>
<path d="M33.3335 0H28.5716V4.54545H33.3335V0Z" fill="white"/>
<path d="M52.381 0H47.619V4.54545H52.381V0Z" fill="white"/>
<path d="M61.9047 0H57.1428V4.54545H61.9047V0Z" fill="white"/>
<path d="M71.4285 0H66.6666V4.54545H71.4285V0Z" fill="white"/>
<path d="M76.1904 0H71.4285V4.54545H76.1904V0Z" fill="white"/>
<path d="M80.9525 0H76.1906V4.54545H80.9525V0Z" fill="white"/>
<path d="M85.7144 0H80.9525V4.54545H85.7144V0Z" fill="white"/>
<path d="M90.4763 0H85.7144V4.54545H90.4763V0Z" fill="white"/>
<path d="M95.2382 0H90.4763V4.54545H95.2382V0Z" fill="white"/>
<path d="M100 0H95.2381V4.54545H100V0Z" fill="white"/>
<path d="M4.7619 4.54583H0V9.09128H4.7619V4.54583Z" fill="white"/>
<path d="M33.3335 4.54583H28.5716V9.09128H33.3335V4.54583Z" fill="white"/>
<path d="M61.9047 4.54583H57.1428V9.09128H61.9047V4.54583Z" fill="white"/>
<path d="M71.4285 4.54583H66.6666V9.09128H71.4285V4.54583Z" fill="white"/>
<path d="M100 4.54583H95.2381V9.09128H100V4.54583Z" fill="white"/>
<path d="M4.7619 9.09033H0V13.6358H4.7619V9.09033Z" fill="white"/>
<path d="M14.2857 9.09033H9.52377V13.6358H14.2857V9.09033Z" fill="white"/>
<path d="M19.0475 9.09033H14.2856V13.6358H19.0475V9.09033Z" fill="white"/>
<path d="M23.8094 9.09033H19.0475V13.6358H23.8094V9.09033Z" fill="white"/>
<path d="M33.3335 9.09033H28.5716V13.6358H33.3335V9.09033Z" fill="white"/>
<path d="M42.8572 9.09033H38.0953V13.6358H42.8572V9.09033Z" fill="white"/>
<path d="M52.381 9.09033H47.619V13.6358H52.381V9.09033Z" fill="white"/>
<path d="M71.4285 9.09033H66.6666V13.6358H71.4285V9.09033Z" fill="white"/>
<path d="M80.9525 9.09033H76.1906V13.6358H80.9525V9.09033Z" fill="white"/>
<path d="M85.7144 9.09033H80.9525V13.6358H85.7144V9.09033Z" fill="white"/>
<path d="M90.4763 9.09033H85.7144V13.6358H90.4763V9.09033Z" fill="white"/>
<path d="M100 9.09033H95.2381V13.6358H100V9.09033Z" fill="white"/>
<path d="M4.7619 13.6361H0V18.1816H4.7619V13.6361Z" fill="white"/>
<path d="M14.2857 13.6361H9.52377V18.1816H14.2857V13.6361Z" fill="white"/>
<path d="M19.0475 13.6361H14.2856V18.1816H19.0475V13.6361Z" fill="white"/>
<path d="M23.8094 13.6361H19.0475V18.1816H23.8094V13.6361Z" fill="white"/>
<path d="M33.3335 13.6361H28.5716V18.1816H33.3335V13.6361Z" fill="white"/>
<path d="M61.9047 13.6361H57.1428V18.1816H61.9047V13.6361Z" fill="white"/>
<path d="M71.4285 13.6361H66.6666V18.1816H71.4285V13.6361Z" fill="white"/>
<path d="M80.9525 13.6361H76.1906V18.1816H80.9525V13.6361Z" fill="white"/>
<path d="M85.7144 13.6361H80.9525V18.1816H85.7144V13.6361Z" fill="white"/>
<path d="M90.4763 13.6361H85.7144V18.1816H90.4763V13.6361Z" fill="white"/>
<path d="M100 13.6361H95.2381V18.1816H100V13.6361Z" fill="white"/>
<path d="M4.7619 18.1823H0V22.7277H4.7619V18.1823Z" fill="white"/>
<path d="M14.2857 18.1823H9.52377V22.7277H14.2857V18.1823Z" fill="white"/>
<path d="M19.0475 18.1823H14.2856V22.7277H19.0475V18.1823Z" fill="white"/>
<path d="M23.8094 18.1823H19.0475V22.7277H23.8094V18.1823Z" fill="white"/>
<path d="M33.3335 18.1823H28.5716V22.7277H33.3335V18.1823Z" fill="white"/>
<path d="M47.6191 18.1823H42.8572V22.7277H47.6191V18.1823Z" fill="white"/>
<path d="M57.1429 18.1823H52.381V22.7277H57.1429V18.1823Z" fill="white"/>
<path d="M61.9047 18.1823H57.1428V22.7277H61.9047V18.1823Z" fill="white"/>
<path d="M71.4285 18.1823H66.6666V22.7277H71.4285V18.1823Z" fill="white"/>
<path d="M80.9525 18.1823H76.1906V22.7277H80.9525V18.1823Z" fill="white"/>
<path d="M85.7144 18.1823H80.9525V22.7277H85.7144V18.1823Z" fill="white"/>
<path d="M90.4763 18.1823H85.7144V22.7277H90.4763V18.1823Z" fill="white"/>
<path d="M100 18.1823H95.2381V22.7277H100V18.1823Z" fill="white"/>
<path d="M4.7619 22.7272H0V27.2727H4.7619V22.7272Z" fill="white"/>
<path d="M33.3335 22.7272H28.5716V27.2727H33.3335V22.7272Z" fill="white"/>
<path d="M47.6191 22.7272H42.8572V27.2727H47.6191V22.7272Z" fill="white"/>
<path d="M52.381 22.7272H47.619V27.2727H52.381V22.7272Z" fill="white"/>
<path d="M57.1429 22.7272H52.381V27.2727H57.1429V22.7272Z" fill="white"/>
<path d="M71.4285 22.7272H66.6666V27.2727H71.4285V22.7272Z" fill="white"/>
<path d="M100 22.7272H95.2381V27.2727H100V22.7272Z" fill="white"/>
<path d="M4.7619 27.2728H0V31.8182H4.7619V27.2728Z" fill="white"/>
<path d="M9.5238 27.2728H4.7619V31.8182H9.5238V27.2728Z" fill="white"/>
<path d="M14.2857 27.2728H9.52377V31.8182H14.2857V27.2728Z" fill="white"/>
<path d="M19.0475 27.2728H14.2856V31.8182H19.0475V27.2728Z" fill="white"/>
<path d="M23.8094 27.2728H19.0475V31.8182H23.8094V27.2728Z" fill="white"/>
<path d="M28.5713 27.2728H23.8094V31.8182H28.5713V27.2728Z" fill="white"/>
<path d="M33.3335 27.2728H28.5716V31.8182H33.3335V27.2728Z" fill="white"/>
<path d="M42.8572 27.2728H38.0953V31.8182H42.8572V27.2728Z" fill="white"/>
<path d="M52.381 27.2728H47.619V31.8182H52.381V27.2728Z" fill="white"/>
<path d="M61.9047 27.2728H57.1428V31.8182H61.9047V27.2728Z" fill="white"/>
<path d="M71.4285 27.2728H66.6666V31.8182H71.4285V27.2728Z" fill="white"/>
<path d="M76.1904 27.2728H71.4285V31.8182H76.1904V27.2728Z" fill="white"/>
<path d="M80.9525 27.2728H76.1906V31.8182H80.9525V27.2728Z" fill="white"/>
<path d="M85.7144 27.2728H80.9525V31.8182H85.7144V27.2728Z" fill="white"/>
<path d="M90.4763 27.2728H85.7144V31.8182H90.4763V27.2728Z" fill="white"/>
<path d="M95.2382 27.2728H90.4763V31.8182H95.2382V27.2728Z" fill="white"/>
<path d="M100 27.2728H95.2381V31.8182H100V27.2728Z" fill="white"/>
<path d="M42.8572 31.8177H38.0953V36.3632H42.8572V31.8177Z" fill="white"/>
<path d="M52.381 31.8177H47.619V36.3632H52.381V31.8177Z" fill="white"/>
<path d="M4.7619 36.3638H0V40.9093H4.7619V36.3638Z" fill="white"/>
<path d="M9.5238 36.3638H4.7619V40.9093H9.5238V36.3638Z" fill="white"/>
<path d="M14.2857 36.3638H9.52377V40.9093H14.2857V36.3638Z" fill="white"/>
<path d="M23.8094 36.3638H19.0475V40.9093H23.8094V36.3638Z" fill="white"/>
<path d="M28.5713 36.3638H23.8094V40.9093H28.5713V36.3638Z" fill="white"/>
<path d="M33.3335 36.3638H28.5716V40.9093H33.3335V36.3638Z" fill="white"/>
<path d="M38.0953 36.3638H33.3334V40.9093H38.0953V36.3638Z" fill="white"/>
<path d="M42.8572 36.3638H38.0953V40.9093H42.8572V36.3638Z" fill="white"/>
<path d="M52.381 36.3638H47.619V40.9093H52.381V36.3638Z" fill="white"/>
<path d="M61.9047 36.3638H57.1428V40.9093H61.9047V36.3638Z" fill="white"/>
<path d="M66.6666 36.3638H61.9047V40.9093H66.6666V36.3638Z" fill="white"/>
<path d="M71.4285 36.3638H66.6666V40.9093H71.4285V36.3638Z" fill="white"/>
<path d="M90.4763 36.3638H85.7144V40.9093H90.4763V36.3638Z" fill="white"/>
<path d="M4.7619 40.9097H0V45.4551H4.7619V40.9097Z" fill="white"/>
<path d="M19.0475 40.9097H14.2856V45.4551H19.0475V40.9097Z" fill="white"/>
<path d="M23.8094 40.9097H19.0475V45.4551H23.8094V40.9097Z" fill="white"/>
<path d="M38.0953 40.9097H33.3334V45.4551H38.0953V40.9097Z" fill="white"/>
<path d="M52.381 40.9097H47.619V45.4551H52.381V40.9097Z" fill="white"/>
<path d="M57.1429 40.9097H52.381V45.4551H57.1429V40.9097Z" fill="white"/>
<path d="M71.4285 40.9097H66.6666V45.4551H71.4285V40.9097Z" fill="white"/>
<path d="M76.1904 40.9097H71.4285V45.4551H76.1904V40.9097Z" fill="white"/>
<path d="M80.9525 40.9097H76.1906V45.4551H80.9525V40.9097Z" fill="white"/>
<path d="M100 40.9097H95.2381V45.4551H100V40.9097Z" fill="white"/>
<path d="M9.5238 45.4542H4.7619V49.9996H9.5238V45.4542Z" fill="white"/>
<path d="M23.8094 45.4542H19.0475V49.9996H23.8094V45.4542Z" fill="white"/>
<path d="M33.3335 45.4542H28.5716V49.9996H33.3335V45.4542Z" fill="white"/>
<path d="M47.6191 45.4542H42.8572V49.9996H47.6191V45.4542Z" fill="white"/>
<path d="M57.1429 45.4542H52.381V49.9996H57.1429V45.4542Z" fill="white"/>
<path d="M66.6666 45.4542H61.9047V49.9996H66.6666V45.4542Z" fill="white"/>
<path d="M80.9525 45.4542H76.1906V49.9996H80.9525V45.4542Z" fill="white"/>
<path d="M90.4763 45.4542H85.7144V49.9996H90.4763V45.4542Z" fill="white"/>
<path d="M95.2382 45.4542H90.4763V49.9996H95.2382V45.4542Z" fill="white"/>
<path d="M100 45.4542H95.2381V49.9996H100V45.4542Z" fill="white"/>
<path d="M9.5238 50H4.7619V54.5455H9.5238V50Z" fill="white"/>
<path d="M23.8094 50H19.0475V54.5455H23.8094V50Z" fill="white"/>
<path d="M38.0953 50H33.3334V54.5455H38.0953V50Z" fill="white"/>
<path d="M42.8572 50H38.0953V54.5455H42.8572V50Z" fill="white"/>
<path d="M47.6191 50H42.8572V54.5455H47.6191V50Z" fill="white"/>
<path d="M57.1429 50H52.381V54.5455H57.1429V50Z" fill="white"/>
<path d="M61.9047 50H57.1428V54.5455H61.9047V50Z" fill="white"/>
<path d="M66.6666 50H61.9047V54.5455H66.6666V50Z" fill="white"/>
<path d="M80.9525 50H76.1906V54.5455H80.9525V50Z" fill="white"/>
<path d="M95.2382 50H90.4763V54.5455H95.2382V50Z" fill="white"/>
<path d="M14.2857 54.5458H9.52377V59.0913H14.2857V54.5458Z" fill="white"/>
<path d="M19.0475 54.5458H14.2856V59.0913H19.0475V54.5458Z" fill="white"/>
<path d="M28.5713 54.5458H23.8094V59.0913H28.5713V54.5458Z" fill="white"/>
<path d="M33.3335 54.5458H28.5716V59.0913H33.3335V54.5458Z" fill="white"/>
<path d="M38.0953 54.5458H33.3334V59.0913H38.0953V54.5458Z" fill="white"/>
<path d="M47.6191 54.5458H42.8572V59.0913H47.6191V54.5458Z" fill="white"/>
<path d="M57.1429 54.5458H52.381V59.0913H57.1429V54.5458Z" fill="white"/>
<path d="M71.4285 54.5458H66.6666V59.0913H71.4285V54.5458Z" fill="white"/>
<path d="M76.1904 54.5458H71.4285V59.0913H76.1904V54.5458Z" fill="white"/>
<path d="M85.7144 54.5458H80.9525V59.0913H85.7144V54.5458Z" fill="white"/>
<path d="M42.8572 59.0903H38.0953V63.6358H42.8572V59.0903Z" fill="white"/>
<path d="M47.6191 59.0903H42.8572V63.6358H47.6191V59.0903Z" fill="white"/>
<path d="M71.4285 59.0903H66.6666V63.6358H71.4285V59.0903Z" fill="white"/>
<path d="M76.1904 59.0903H71.4285V63.6358H76.1904V59.0903Z" fill="white"/>
<path d="M80.9525 59.0903H76.1906V63.6358H80.9525V59.0903Z" fill="white"/>
<path d="M95.2382 59.0903H90.4763V63.6358H95.2382V59.0903Z" fill="white"/>
<path d="M100 59.0903H95.2381V63.6358H100V59.0903Z" fill="white"/>
<path d="M4.7619 63.6362H0V68.1817H4.7619V63.6362Z" fill="white"/>
<path d="M9.5238 63.6362H4.7619V68.1817H9.5238V63.6362Z" fill="white"/>
<path d="M14.2857 63.6362H9.52377V68.1817H14.2857V63.6362Z" fill="white"/>
<path d="M19.0475 63.6362H14.2856V68.1817H19.0475V63.6362Z" fill="white"/>
<path d="M23.8094 63.6362H19.0475V68.1817H23.8094V63.6362Z" fill="white"/>
<path d="M28.5713 63.6362H23.8094V68.1817H28.5713V63.6362Z" fill="white"/>
<path d="M33.3335 63.6362H28.5716V68.1817H33.3335V63.6362Z" fill="white"/>
<path d="M42.8572 63.6362H38.0953V68.1817H42.8572V63.6362Z" fill="white"/>
<path d="M47.6191 63.6362H42.8572V68.1817H47.6191V63.6362Z" fill="white"/>
<path d="M52.381 63.6362H47.619V68.1817H52.381V63.6362Z" fill="white"/>
<path d="M61.9047 63.6362H57.1428V68.1817H61.9047V63.6362Z" fill="white"/>
<path d="M80.9525 63.6362H76.1906V68.1817H80.9525V63.6362Z" fill="white"/>
<path d="M90.4763 63.6362H85.7144V68.1817H90.4763V63.6362Z" fill="white"/>
<path d="M95.2382 63.6362H90.4763V68.1817H95.2382V63.6362Z" fill="white"/>
<path d="M100 63.6362H95.2381V68.1817H100V63.6362Z" fill="white"/>
<path d="M4.7619 68.1823H0V72.7277H4.7619V68.1823Z" fill="white"/>
<path d="M33.3335 68.1823H28.5716V72.7277H33.3335V68.1823Z" fill="white"/>
<path d="M42.8572 68.1823H38.0953V72.7277H42.8572V68.1823Z" fill="white"/>
<path d="M47.6191 68.1823H42.8572V72.7277H47.6191V68.1823Z" fill="white"/>
<path d="M71.4285 68.1823H66.6666V72.7277H71.4285V68.1823Z" fill="white"/>
<path d="M76.1904 68.1823H71.4285V72.7277H76.1904V68.1823Z" fill="white"/>
<path d="M80.9525 68.1823H76.1906V72.7277H80.9525V68.1823Z" fill="white"/>
<path d="M95.2382 68.1823H90.4763V72.7277H95.2382V68.1823Z" fill="white"/>
<path d="M4.7619 72.7273H0V77.2727H4.7619V72.7273Z" fill="white"/>
<path d="M14.2857 72.7273H9.52377V77.2727H14.2857V72.7273Z" fill="white"/>
<path d="M19.0475 72.7273H14.2856V77.2727H19.0475V72.7273Z" fill="white"/>
<path d="M23.8094 72.7273H19.0475V77.2727H23.8094V72.7273Z" fill="white"/>
<path d="M33.3335 72.7273H28.5716V77.2727H33.3335V72.7273Z" fill="white"/>
<path d="M42.8572 72.7273H38.0953V77.2727H42.8572V72.7273Z" fill="white"/>
<path d="M52.381 72.7273H47.619V77.2727H52.381V72.7273Z" fill="white"/>
<path d="M61.9047 72.7273H57.1428V77.2727H61.9047V72.7273Z" fill="white"/>
<path d="M71.4285 72.7273H66.6666V77.2727H71.4285V72.7273Z" fill="white"/>
<path d="M85.7144 72.7273H80.9525V77.2727H85.7144V72.7273Z" fill="white"/>
<path d="M4.7619 77.2727H0V81.8182H4.7619V77.2727Z" fill="white"/>
<path d="M14.2857 77.2727H9.52377V81.8182H14.2857V77.2727Z" fill="white"/>
<path d="M19.0475 77.2727H14.2856V81.8182H19.0475V77.2727Z" fill="white"/>
<path d="M23.8094 77.2727H19.0475V81.8182H23.8094V77.2727Z" fill="white"/>
<path d="M33.3335 77.2727H28.5716V81.8182H33.3335V77.2727Z" fill="white"/>
<path d="M47.6191 77.2727H42.8572V81.8182H47.6191V77.2727Z" fill="white"/>
<path d="M52.381 77.2727H47.619V81.8182H52.381V77.2727Z" fill="white"/>
<path d="M57.1429 77.2727H52.381V81.8182H57.1429V77.2727Z" fill="white"/>
<path d="M66.6666 77.2727H61.9047V81.8182H66.6666V77.2727Z" fill="white"/>
<path d="M80.9525 77.2727H76.1906V81.8182H80.9525V77.2727Z" fill="white"/>
<path d="M85.7144 77.2727H80.9525V81.8182H85.7144V77.2727Z" fill="white"/>
<path d="M95.2382 77.2727H90.4763V81.8182H95.2382V77.2727Z" fill="white"/>
<path d="M4.7619 81.8177H0V86.3632H4.7619V81.8177Z" fill="white"/>
<path d="M14.2857 81.8177H9.52377V86.3632H14.2857V81.8177Z" fill="white"/>
<path d="M19.0475 81.8177H14.2856V86.3632H19.0475V81.8177Z" fill="white"/>
<path d="M23.8094 81.8177H19.0475V86.3632H23.8094V81.8177Z" fill="white"/>
<path d="M33.3335 81.8177H28.5716V86.3632H33.3335V81.8177Z" fill="white"/>
<path d="M42.8572 81.8177H38.0953V86.3632H42.8572V81.8177Z" fill="white"/>
<path d="M57.1429 81.8177H52.381V86.3632H57.1429V81.8177Z" fill="white"/>
<path d="M66.6666 81.8177H61.9047V86.3632H66.6666V81.8177Z" fill="white"/>
<path d="M71.4285 81.8177H66.6666V86.3632H71.4285V81.8177Z" fill="white"/>
<path d="M80.9525 81.8177H76.1906V86.3632H80.9525V81.8177Z" fill="white"/>
<path d="M90.4763 81.8177H85.7144V86.3632H90.4763V81.8177Z" fill="white"/>
<path d="M100 81.8177H95.2381V86.3632H100V81.8177Z" fill="white"/>
<path d="M4.7619 86.3639H0V90.9093H4.7619V86.3639Z" fill="white"/>
<path d="M33.3335 86.3639H28.5716V90.9093H33.3335V86.3639Z" fill="white"/>
<path d="M42.8572 86.3639H38.0953V90.9093H42.8572V86.3639Z" fill="white"/>
<path d="M47.6191 86.3639H42.8572V90.9093H47.6191V86.3639Z" fill="white"/>
<path d="M52.381 86.3639H47.619V90.9093H52.381V86.3639Z" fill="white"/>
<path d="M57.1429 86.3639H52.381V90.9093H57.1429V86.3639Z" fill="white"/>
<path d="M61.9047 86.3639H57.1428V90.9093H61.9047V86.3639Z" fill="white"/>
<path d="M66.6666 86.3639H61.9047V90.9093H66.6666V86.3639Z" fill="white"/>
<path d="M80.9525 86.3639H76.1906V90.9093H80.9525V86.3639Z" fill="white"/>
<path d="M95.2382 86.3639H90.4763V90.9093H95.2382V86.3639Z" fill="white"/>
<path d="M4.7619 90.9086H0V95.4541H4.7619V90.9086Z" fill="white"/>
<path d="M4.7619 95.4001H0V99.9455H4.7619V95.4001Z" fill="white"/>
<path d="M9.5238 90.9086H4.7619V95.4541H9.5238V90.9086Z" fill="white"/>
<path d="M9.5238 95.4001H4.7619V99.9455H9.5238V95.4001Z" fill="white"/>
<path d="M14.2858 90.9086H9.52386V95.4541H14.2858V90.9086Z" fill="white"/>
<path d="M14.2858 95.4001H9.52386V99.9455H14.2858V95.4001Z" fill="white"/>
<path d="M19.0476 90.9086H14.2857V95.4541H19.0476V90.9086Z" fill="white"/>
<path d="M19.0476 95.4001H14.2857V99.9455H19.0476V95.4001Z" fill="white"/>
<path d="M23.8095 90.9086H19.0476V95.4541H23.8095V90.9086Z" fill="white"/>
<path d="M23.8095 95.4001H19.0476V99.9455H23.8095V95.4001Z" fill="white"/>
<path d="M28.5715 90.9086H23.8095V95.4541H28.5715V90.9086Z" fill="white"/>
<path d="M28.5715 95.4001H23.8095V99.9455H28.5715V95.4001Z" fill="white"/>
<path d="M33.3333 90.9086H28.5714V95.4541H33.3333V90.9086Z" fill="white"/>
<path d="M33.3333 95.4001H28.5714V99.9455H33.3333V95.4001Z" fill="white"/>
<path d="M42.8571 90.9086H38.0952V95.4541H42.8571V90.9086Z" fill="white"/>
<path d="M42.8571 95.4001H38.0952V99.9455H42.8571V95.4001Z" fill="white"/>
<path d="M52.3809 90.9086H47.619V95.4541H52.3809V90.9086Z" fill="white"/>
<path d="M52.3809 95.4001H47.619V99.9455H52.3809V95.4001Z" fill="white"/>
<path d="M57.1429 90.9086H52.381V95.4541H57.1429V90.9086Z" fill="white"/>
<path d="M57.1429 95.4001H52.381V99.9455H57.1429V95.4001Z" fill="white"/>
<path d="M66.6667 90.9086H61.9048V95.4541H66.6667V90.9086Z" fill="white"/>
<path d="M66.6667 95.4001H61.9048V99.9455H66.6667V95.4001Z" fill="white"/>
<path d="M71.4286 90.9086H66.6667V95.4541H71.4286V90.9086Z" fill="white"/>
<path d="M71.4286 95.4001H66.6667V99.9455H71.4286V95.4001Z" fill="white"/>
<path d="M80.9524 90.9086H76.1905V95.4541H80.9524V90.9086Z" fill="white"/>
<path d="M80.9524 95.4001H76.1905V99.9455H80.9524V95.4001Z" fill="white"/>
<path d="M85.7142 90.9086H80.9524V95.4541H85.7142V90.9086Z" fill="white"/>
<path d="M85.7142 95.4001H80.9524V99.9455H85.7142V95.4001Z" fill="white"/>
<path d="M95.238 90.9086H90.4762V95.4541H95.238V90.9086Z" fill="white"/>
<path d="M95.238 95.4001H90.4762V99.9455H95.238V95.4001Z" fill="white"/>
<path d="M99.9999 90.9086H95.238V95.4541H99.9999V90.9086Z" fill="white"/>
<path d="M99.9999 95.4001H95.238V99.9455H99.9999V95.4001Z" fill="white"/>
</svg>
